<svg
	viewBox="0 0 28 28"
	fill="none"
	xmlns="http://www.w3.org/2000/svg"
>
	<path
		d="M14 0C11.2311 0 8.52431 0.821085 6.22202 2.35942C3.91973 3.89776 2.12532 6.08427 1.06569 8.64243C0.006066 11.2006 -0.271181 14.0155 0.269012 16.7313C0.809205 19.447 2.14258 21.9416 4.10051 23.8995C6.05845 25.8574 8.55301 27.1908 11.2687 27.731C13.9845 28.2712 16.7994 27.9939 19.3576 26.9343C21.9157 25.8747 24.1022 24.0803 25.6406 21.778C27.1789 19.4757 28 16.7689 28 14C28 10.287 26.525 6.72601 23.8995 4.1005C21.274 1.475 17.713 0 14 0V0ZM9.70667 19.954C9.70497 20.4463 9.50823 20.9178 9.15955 21.2652C8.81087 21.6127 8.33869 21.8078 7.84644 21.8078H6.10207C6.08436 21.8079 6.06726 21.8013 6.05415 21.7894C6.04104 21.7775 6.03288 21.7611 6.03127 21.7434V13.9485C6.03127 13.4705 6.22115 13.0121 6.55915 12.6741C6.89715 12.3361 7.35557 12.1462 7.83357 12.1462H9.65518C9.67289 12.1461 9.68999 12.1527 9.7031 12.1646C9.71621 12.1765 9.72437 12.1929 9.72598 12.2106L9.70667 19.954ZM15.8345 16.9674C15.8345 17.459 15.6392 17.9305 15.2915 18.2782C14.9439 18.6258 14.4723 18.8211 13.9807 18.8211H12.2299C12.2128 18.8211 12.1964 18.8144 12.1844 18.8023C12.1723 18.7902 12.1655 18.7738 12.1655 18.7568V10.9425C12.1655 10.4645 12.3554 10.0061 12.6934 9.66811C13.0314 9.33011 13.4898 9.14023 13.9678 9.14023H15.7701C15.7872 9.14023 15.8036 9.14701 15.8156 9.15908C15.8277 9.17115 15.8345 9.18752 15.8345 9.2046V16.9674ZM21.9301 13.9807C21.9301 14.474 21.7341 14.9472 21.3853 15.2961C21.0364 15.6449 20.5632 15.8409 20.0699 15.8409H18.3255C18.3165 15.841 18.3076 15.8391 18.2993 15.8355C18.291 15.8318 18.2836 15.8265 18.2776 15.8198C18.2715 15.8132 18.2669 15.8053 18.2641 15.7967C18.2612 15.7882 18.2603 15.7791 18.2612 15.7701V7.98161C18.2603 7.74438 18.3063 7.50933 18.3965 7.28992C18.4867 7.07051 18.6193 6.87107 18.7868 6.70303C18.9542 6.53499 19.1532 6.40165 19.3722 6.31068C19.5913 6.2197 19.8262 6.17287 20.0634 6.17287H21.8851C21.9027 6.17448 21.9191 6.18265 21.931 6.19576C21.9429 6.20886 21.9495 6.22596 21.9494 6.24368L21.9301 13.9807Z"
		fill="white"
	/>
</svg>
